<svg width="190" height="30" viewBox="0 0 190 30" fill="none" xmlns="http://www.w3.org/2000/svg">
<rect width="190" height="30" rx="4" fill="#F8FAFC"/>
<path d="M16.6882 13.4922H13.8885C13.8374 13.13 13.733 12.8082 13.5753 12.527C13.4176 12.2415 13.2152 11.9986 12.968 11.7983C12.7209 11.598 12.4354 11.4446 12.1115 11.3381C11.7919 11.2315 11.4446 11.1783 11.0696 11.1783C10.392 11.1783 9.80185 11.3466 9.29901 11.6832C8.79617 12.0156 8.40625 12.5014 8.12926 13.1406C7.85227 13.7756 7.71378 14.5469 7.71378 15.4545C7.71378 16.3878 7.85227 17.1719 8.12926 17.8068C8.41051 18.4418 8.80256 18.9212 9.3054 19.245C9.80824 19.5689 10.3899 19.7308 11.0504 19.7308C11.4212 19.7308 11.7642 19.6818 12.0795 19.5838C12.3991 19.4858 12.6825 19.343 12.9297 19.1555C13.1768 18.9638 13.3814 18.7315 13.5433 18.4588C13.7095 18.1861 13.8246 17.875 13.8885 17.5256L16.6882 17.5384C16.6158 18.1392 16.4347 18.7188 16.1449 19.277C15.8594 19.831 15.4737 20.3274 14.9879 20.7663C14.5064 21.201 13.9311 21.5462 13.2621 21.8018C12.5973 22.0533 11.8452 22.179 11.0057 22.179C9.83807 22.179 8.79403 21.9148 7.87358 21.3864C6.95739 20.858 6.23295 20.093 5.70028 19.0916C5.17188 18.0902 4.90767 16.8778 4.90767 15.4545C4.90767 14.027 5.17614 12.8125 5.71307 11.8111C6.25 10.8097 6.97869 10.0469 7.89915 9.52273C8.8196 8.99432 9.85511 8.73011 11.0057 8.73011C11.7642 8.73011 12.4673 8.83665 13.1151 9.04972C13.767 9.26278 14.3445 9.57386 14.8473 9.98295C15.3501 10.3878 15.7592 10.8842 16.0746 11.4723C16.3942 12.0604 16.5987 12.7337 16.6882 13.4922ZM18.6729 22V8.90909H23.8377C24.8306 8.90909 25.6765 9.09872 26.3754 9.47798C27.0742 9.85298 27.6069 10.375 27.9734 11.044C28.3441 11.7088 28.5295 12.4759 28.5295 13.3452C28.5295 14.2145 28.342 14.9815 27.967 15.6463C27.592 16.3111 27.0487 16.8288 26.337 17.1996C25.6296 17.5703 24.7731 17.7557 23.7674 17.7557H20.4755V15.5376H23.32C23.8526 15.5376 24.2915 15.446 24.6367 15.2628C24.9862 15.0753 25.2461 14.8175 25.4165 14.4893C25.5913 14.157 25.6786 13.7756 25.6786 13.3452C25.6786 12.9105 25.5913 12.5312 25.4165 12.2074C25.2461 11.8793 24.9862 11.6257 24.6367 11.4467C24.2873 11.2635 23.8441 11.1719 23.3072 11.1719H21.4407V22H18.6729ZM30.3272 22V8.90909H35.492C36.4806 8.90909 37.3244 9.08594 38.0233 9.43963C38.7264 9.78906 39.2612 10.2855 39.6277 10.929C39.9984 11.5682 40.1838 12.3203 40.1838 13.1854C40.1838 14.0547 39.9963 14.8026 39.6213 15.429C39.2463 16.0511 38.7029 16.5284 37.9913 16.8608C37.2839 17.1932 36.4274 17.3594 35.4217 17.3594H31.9636V15.1349H34.9743C35.5027 15.1349 35.9416 15.0625 36.291 14.9176C36.6404 14.7727 36.9004 14.5554 37.0708 14.2656C37.2456 13.9759 37.3329 13.6158 37.3329 13.1854C37.3329 12.7507 37.2456 12.3842 37.0708 12.0859C36.9004 11.7876 36.6383 11.5618 36.2846 11.4084C35.9352 11.2507 35.4941 11.1719 34.9615 11.1719H33.095V22H30.3272ZM37.3968 16.0426L40.6504 22H37.595L34.4118 16.0426H37.3968Z" fill="#F59E0B"/>
<path d="M46.3058 22V8.90909H51.4705C52.4634 8.90909 53.3093 9.09872 54.0082 9.47798C54.707 9.85298 55.2397 10.375 55.6062 11.044C55.9769 11.7088 56.1623 12.4759 56.1623 13.3452C56.1623 14.2145 55.9748 14.9815 55.5998 15.6463C55.2248 16.3111 54.6815 16.8288 53.9698 17.1996C53.2624 17.5703 52.4059 17.7557 51.4002 17.7557H48.1083V15.5376H50.9528C51.4854 15.5376 51.9244 15.446 52.2695 15.2628C52.619 15.0753 52.8789 14.8175 53.0494 14.4893C53.2241 14.157 53.3114 13.7756 53.3114 13.3452C53.3114 12.9105 53.2241 12.5312 53.0494 12.2074C52.8789 11.8793 52.619 11.6257 52.2695 11.4467C51.9201 11.2635 51.4769 11.1719 50.94 11.1719H49.0735V22H46.3058ZM57.9089 22V12.1818H60.6319V22H57.9089ZM59.2768 10.9162C58.872 10.9162 58.5247 10.782 58.2349 10.5135C57.9494 10.2408 57.8066 9.91477 57.8066 9.53551C57.8066 9.16051 57.9494 8.83878 58.2349 8.57031C58.5247 8.29758 58.872 8.16122 59.2768 8.16122C59.6816 8.16122 60.0268 8.29758 60.3123 8.57031C60.6021 8.83878 60.747 9.16051 60.747 9.53551C60.747 9.91477 60.6021 10.2408 60.3123 10.5135C60.0268 10.782 59.6816 10.9162 59.2768 10.9162ZM71.9666 12.1818L68.5341 22H65.4659L62.0334 12.1818H64.9098L66.9489 19.2067H67.0511L69.0838 12.1818H71.9666ZM77.4798 22.1918C76.4869 22.1918 75.6282 21.9808 74.9038 21.5589C74.1836 21.1328 73.6275 20.5405 73.2354 19.782C72.8434 19.0192 72.6474 18.1349 72.6474 17.1293C72.6474 16.1151 72.8434 15.2287 73.2354 14.4702C73.6275 13.7074 74.1836 13.1151 74.9038 12.6932C75.6282 12.267 76.4869 12.054 77.4798 12.054C78.4727 12.054 79.3292 12.267 80.0494 12.6932C80.7738 13.1151 81.332 13.7074 81.7241 14.4702C82.1161 15.2287 82.3121 16.1151 82.3121 17.1293C82.3121 18.1349 82.1161 19.0192 81.7241 19.782C81.332 20.5405 80.7738 21.1328 80.0494 21.5589C79.3292 21.9808 78.4727 22.1918 77.4798 22.1918ZM77.4925 20.0824C77.9442 20.0824 78.3214 19.9545 78.6239 19.6989C78.9265 19.4389 79.1545 19.0852 79.3079 18.6378C79.4656 18.1903 79.5444 17.6811 79.5444 17.1101C79.5444 16.5391 79.4656 16.0298 79.3079 15.5824C79.1545 15.1349 78.9265 14.7812 78.6239 14.5213C78.3214 14.2614 77.9442 14.1314 77.4925 14.1314C77.0366 14.1314 76.6531 14.2614 76.342 14.5213C76.0352 14.7812 75.8029 15.1349 75.6452 15.5824C75.4918 16.0298 75.4151 16.5391 75.4151 17.1101C75.4151 17.6811 75.4918 18.1903 75.6452 18.6378C75.8029 19.0852 76.0352 19.4389 76.342 19.6989C76.6531 19.9545 77.0366 20.0824 77.4925 20.0824ZM89.305 12.1818V14.2273H83.3924V12.1818H89.305ZM84.7347 9.82955H87.4577V18.983C87.4577 19.2344 87.4961 19.4304 87.5728 19.571C87.6495 19.7074 87.756 19.8033 87.8924 19.8587C88.033 19.9141 88.195 19.9418 88.3782 19.9418C88.506 19.9418 88.6339 19.9311 88.7617 19.9098C88.8896 19.8842 88.9876 19.8651 89.0558 19.8523L89.484 21.8786C89.3477 21.9212 89.1559 21.9702 88.9087 22.0256C88.6616 22.0852 88.3612 22.1214 88.0075 22.1342C87.3512 22.1598 86.7759 22.0724 86.2816 21.8722C85.7915 21.6719 85.4102 21.3608 85.1374 20.9389C84.8647 20.517 84.7305 19.9844 84.7347 19.3409V9.82955ZM106.846 13.4922H104.047C103.996 13.13 103.891 12.8082 103.733 12.527C103.576 12.2415 103.373 11.9986 103.126 11.7983C102.879 11.598 102.594 11.4446 102.27 11.3381C101.95 11.2315 101.603 11.1783 101.228 11.1783C100.55 11.1783 99.96 11.3466 99.4572 11.6832C98.9544 12.0156 98.5645 12.5014 98.2875 13.1406C98.0105 13.7756 97.872 14.5469 97.872 15.4545C97.872 16.3878 98.0105 17.1719 98.2875 17.8068C98.5687 18.4418 98.9608 18.9212 99.4636 19.245C99.9664 19.5689 100.548 19.7308 101.209 19.7308C101.579 19.7308 101.922 19.6818 102.238 19.5838C102.557 19.4858 102.841 19.343 103.088 19.1555C103.335 18.9638 103.54 18.7315 103.702 18.4588C103.868 18.1861 103.983 17.875 104.047 17.5256L106.846 17.5384C106.774 18.1392 106.593 18.7188 106.303 19.277C106.018 19.831 105.632 20.3274 105.146 20.7663C104.665 21.201 104.089 21.5462 103.42 21.8018C102.756 22.0533 102.003 22.179 101.164 22.179C99.9963 22.179 98.9522 21.9148 98.0318 21.3864C97.1156 20.858 96.3912 20.093 95.8585 19.0916C95.3301 18.0902 95.0659 16.8778 95.0659 15.4545C95.0659 14.027 95.3343 12.8125 95.8713 11.8111C96.4082 10.8097 97.1369 10.0469 98.0574 9.52273C98.9778 8.99432 100.013 8.73011 101.164 8.73011C101.922 8.73011 102.626 8.83665 103.273 9.04972C103.925 9.26278 104.503 9.57386 105.006 9.98295C105.508 10.3878 105.917 10.8842 106.233 11.4723C106.552 12.0604 106.757 12.7337 106.846 13.4922ZM111.58 22.1854C110.953 22.1854 110.395 22.0767 109.905 21.8594C109.415 21.6378 109.027 21.3118 108.742 20.8814C108.46 20.4467 108.32 19.9055 108.32 19.2578C108.32 18.7124 108.42 18.2543 108.62 17.8835C108.82 17.5128 109.093 17.2145 109.438 16.9886C109.784 16.7628 110.176 16.5923 110.615 16.4773C111.058 16.3622 111.522 16.2812 112.008 16.2344C112.579 16.1747 113.039 16.1193 113.389 16.0682C113.738 16.0128 113.992 15.9318 114.149 15.8253C114.307 15.7187 114.386 15.5611 114.386 15.3523V15.3139C114.386 14.9091 114.258 14.5959 114.002 14.3743C113.751 14.1527 113.393 14.0419 112.928 14.0419C112.438 14.0419 112.048 14.1506 111.759 14.3679C111.469 14.581 111.277 14.8494 111.183 15.1733L108.665 14.9688C108.793 14.3722 109.044 13.8565 109.419 13.4219C109.794 12.983 110.278 12.6463 110.87 12.4119C111.467 12.1733 112.157 12.054 112.941 12.054C113.487 12.054 114.009 12.1179 114.507 12.2457C115.01 12.3736 115.455 12.5717 115.843 12.8402C116.235 13.1087 116.544 13.4538 116.77 13.8757C116.996 14.2933 117.109 14.794 117.109 15.3778V22H114.526V20.6385H114.45C114.292 20.9453 114.081 21.2159 113.817 21.4503C113.553 21.6804 113.235 21.8615 112.865 21.9936C112.494 22.1214 112.066 22.1854 111.58 22.1854ZM112.36 20.3061C112.76 20.3061 113.114 20.2273 113.421 20.0696C113.727 19.9077 113.968 19.6903 114.143 19.4176C114.318 19.1449 114.405 18.8359 114.405 18.4908V17.4489C114.32 17.5043 114.203 17.5554 114.053 17.6023C113.909 17.6449 113.744 17.6854 113.561 17.7237C113.378 17.7578 113.195 17.7898 113.012 17.8196C112.828 17.8452 112.662 17.8686 112.513 17.8899C112.193 17.9368 111.914 18.0114 111.676 18.1136C111.437 18.2159 111.252 18.3544 111.119 18.5291C110.987 18.6996 110.921 18.9126 110.921 19.1683C110.921 19.5391 111.056 19.8224 111.324 20.0185C111.597 20.2102 111.942 20.3061 112.36 20.3061ZM121.944 8.90909V22H119.221V8.90909H121.944ZM128.562 22.1918C127.556 22.1918 126.691 21.9787 125.967 21.5526C125.246 21.1222 124.692 20.5256 124.305 19.7628C123.921 19 123.729 18.1222 123.729 17.1293C123.729 16.1236 123.923 15.2415 124.311 14.483C124.703 13.7202 125.259 13.1257 125.979 12.6996C126.7 12.2692 127.556 12.054 128.549 12.054C129.406 12.054 130.156 12.2095 130.799 12.5206C131.442 12.8317 131.952 13.2685 132.327 13.831C132.702 14.3935 132.908 15.054 132.947 15.8125H130.377C130.305 15.3224 130.113 14.9283 129.802 14.63C129.495 14.3274 129.092 14.1761 128.594 14.1761C128.172 14.1761 127.803 14.2912 127.488 14.5213C127.177 14.7472 126.934 15.0774 126.759 15.5121C126.585 15.9467 126.497 16.473 126.497 17.0909C126.497 17.7173 126.582 18.25 126.753 18.6889C126.928 19.1278 127.173 19.4624 127.488 19.6925C127.803 19.9226 128.172 20.0376 128.594 20.0376C128.905 20.0376 129.184 19.9737 129.431 19.8459C129.683 19.718 129.889 19.5327 130.051 19.2898C130.217 19.0426 130.326 18.7464 130.377 18.4013H132.947C132.904 19.1513 132.7 19.8118 132.333 20.3828C131.971 20.9496 131.47 21.3928 130.831 21.7124C130.192 22.032 129.435 22.1918 128.562 22.1918ZM140.986 17.8196V12.1818H143.709V22H141.095V20.2166H140.993C140.771 20.7919 140.403 21.2543 139.887 21.6037C139.376 21.9531 138.751 22.1278 138.014 22.1278C137.358 22.1278 136.78 21.9787 136.282 21.6804C135.783 21.3821 135.393 20.9581 135.112 20.4084C134.835 19.8587 134.694 19.2003 134.69 18.4332V12.1818H137.413V17.9474C137.417 18.527 137.573 18.9851 137.88 19.3217C138.187 19.6584 138.598 19.8267 139.113 19.8267C139.442 19.8267 139.748 19.7521 140.034 19.603C140.319 19.4496 140.55 19.2237 140.724 18.9254C140.903 18.6271 140.991 18.2585 140.986 17.8196ZM148.61 8.90909V22H145.887V8.90909H148.61ZM153.591 22.1854C152.965 22.1854 152.407 22.0767 151.917 21.8594C151.427 21.6378 151.039 21.3118 150.753 20.8814C150.472 20.4467 150.331 19.9055 150.331 19.2578C150.331 18.7124 150.432 18.2543 150.632 17.8835C150.832 17.5128 151.105 17.2145 151.45 16.9886C151.795 16.7628 152.187 16.5923 152.626 16.4773C153.069 16.3622 153.534 16.2812 154.02 16.2344C154.591 16.1747 155.051 16.1193 155.4 16.0682C155.75 16.0128 156.003 15.9318 156.161 15.8253C156.319 15.7187 156.398 15.5611 156.398 15.3523V15.3139C156.398 14.9091 156.27 14.5959 156.014 14.3743C155.763 14.1527 155.405 14.0419 154.94 14.0419C154.45 14.0419 154.06 14.1506 153.77 14.3679C153.481 14.581 153.289 14.8494 153.195 15.1733L150.677 14.9688C150.805 14.3722 151.056 13.8565 151.431 13.4219C151.806 12.983 152.29 12.6463 152.882 12.4119C153.479 12.1733 154.169 12.054 154.953 12.054C155.498 12.054 156.02 12.1179 156.519 12.2457C157.022 12.3736 157.467 12.5717 157.855 12.8402C158.247 13.1087 158.556 13.4538 158.782 13.8757C159.008 14.2933 159.121 14.794 159.121 15.3778V22H156.538V20.6385H156.461C156.304 20.9453 156.093 21.2159 155.829 21.4503C155.564 21.6804 155.247 21.8615 154.876 21.9936C154.506 22.1214 154.077 22.1854 153.591 22.1854ZM154.371 20.3061C154.772 20.3061 155.126 20.2273 155.432 20.0696C155.739 19.9077 155.98 19.6903 156.155 19.4176C156.329 19.1449 156.417 18.8359 156.417 18.4908V17.4489C156.331 17.5043 156.214 17.5554 156.065 17.6023C155.92 17.6449 155.756 17.6854 155.573 17.7237C155.39 17.7578 155.206 17.7898 155.023 17.8196C154.84 17.8452 154.674 17.8686 154.525 17.8899C154.205 17.9368 153.926 18.0114 153.687 18.1136C153.449 18.2159 153.263 18.3544 153.131 18.5291C152.999 18.6996 152.933 18.9126 152.933 19.1683C152.933 19.5391 153.067 19.8224 153.336 20.0185C153.608 20.2102 153.954 20.3061 154.371 20.3061ZM166.455 12.1818V14.2273H160.543V12.1818H166.455ZM161.885 9.82955H164.608V18.983C164.608 19.2344 164.646 19.4304 164.723 19.571C164.8 19.7074 164.906 19.8033 165.043 19.8587C165.183 19.9141 165.345 19.9418 165.529 19.9418C165.656 19.9418 165.784 19.9311 165.912 19.9098C166.04 19.8842 166.138 19.8651 166.206 19.8523L166.634 21.8786C166.498 21.9212 166.306 21.9702 166.059 22.0256C165.812 22.0852 165.512 22.1214 165.158 22.1342C164.502 22.1598 163.926 22.0724 163.432 21.8722C162.942 21.6719 162.561 21.3608 162.288 20.9389C162.015 20.517 161.881 19.9844 161.885 19.3409V9.82955ZM172.56 22.1918C171.567 22.1918 170.708 21.9808 169.984 21.5589C169.264 21.1328 168.708 20.5405 168.316 19.782C167.923 19.0192 167.727 18.1349 167.727 17.1293C167.727 16.1151 167.923 15.2287 168.316 14.4702C168.708 13.7074 169.264 13.1151 169.984 12.6932C170.708 12.267 171.567 12.054 172.56 12.054C173.553 12.054 174.409 12.267 175.129 12.6932C175.854 13.1151 176.412 13.7074 176.804 14.4702C177.196 15.2287 177.392 16.1151 177.392 17.1293C177.392 18.1349 177.196 19.0192 176.804 19.782C176.412 20.5405 175.854 21.1328 175.129 21.5589C174.409 21.9808 173.553 22.1918 172.56 22.1918ZM172.573 20.0824C173.024 20.0824 173.401 19.9545 173.704 19.6989C174.007 19.4389 174.235 19.0852 174.388 18.6378C174.546 18.1903 174.624 17.6811 174.624 17.1101C174.624 16.5391 174.546 16.0298 174.388 15.5824C174.235 15.1349 174.007 14.7812 173.704 14.5213C173.401 14.2614 173.024 14.1314 172.573 14.1314C172.117 14.1314 171.733 14.2614 171.422 14.5213C171.115 14.7812 170.883 15.1349 170.725 15.5824C170.572 16.0298 170.495 16.5391 170.495 17.1101C170.495 17.6811 170.572 18.1903 170.725 18.6378C170.883 19.0852 171.115 19.4389 171.422 19.6989C171.733 19.9545 172.117 20.0824 172.573 20.0824ZM179.163 22V12.1818H181.803V13.8949H181.905C182.084 13.2855 182.384 12.8253 182.806 12.5142C183.228 12.1989 183.714 12.0412 184.264 12.0412C184.4 12.0412 184.547 12.0497 184.705 12.0668C184.862 12.0838 185.001 12.1072 185.12 12.1371V14.5533C184.992 14.5149 184.816 14.4808 184.59 14.451C184.364 14.4212 184.157 14.4062 183.97 14.4062C183.569 14.4062 183.211 14.4936 182.896 14.6683C182.585 14.8388 182.338 15.0774 182.154 15.3842C181.975 15.6911 181.886 16.0447 181.886 16.4453V22H179.163Z" fill="#0EA5E9"/>
</svg>
